<?xml version="1.0" standalone="no"?>
<!DOCTYPE svg PUBLIC "-//W3C//DTD SVG 20010904//EN"
 "http://www.w3.org/TR/2001/REC-SVG-20010904/DTD/svg10.dtd">
<svg version="1.0" xmlns="http://www.w3.org/2000/svg"
 width="379.000000pt" height="150.000000pt" viewBox="0 0 379.000000 150.000000"
 preserveAspectRatio="xMidYMid meet">
<metadata>
Created by potrace 1.16, written by Peter Selinger 2001-2019
</metadata>
<g transform="translate(0.000000,150.000000) scale(0.100000,-0.100000)"
fill="#000000" stroke="none">
<path d="M535 813 c4 -10 21 -55 38 -100 l31 -82 33 81 c52 130 56 118 -32
118 -69 0 -76 -2 -70 -17z"/>
<path d="M3175 813 c4 -10 21 -55 38 -100 l31 -82 33 81 c52 130 56 118 -32
118 -69 0 -76 -2 -70 -17z"/>
<path d="M1593 733 l627 -3 0 -175 0 -175 -627 -3 c-346 -1 -178 -2 372 -2
1076 1 1039 0 1160 55 164 74 164 176 0 250 -121 55 -84 54 -1160 55 -550 0
-718 -1 -372 -2z"/>
</g>
</svg>
